<svg xmlns="http://www.w3.org/2000/svg" fill-rule="evenodd" clip-rule="evenodd" image-rendering="optimizeQuality" shape-rendering="geometricPrecision" text-rendering="geometricPrecision" viewBox="0 0 512 512" id="Wechat"><path fill-rule="nonzero" d="M183.52 307.88c-1.98,-0.17 -5.03,-0.04 -6.81,0.96 -13.78,7.78 -27.35,16.92 -40.85,25.35 2.7,-12.19 5.11,-26.6 8.62,-38.3 0.97,-3.23 0.86,-3.68 -1.92,-5.65 -29.38,-20.74 -46.96,-52.98 -40.93,-89.22 7.67,-46.05 50.24,-77.83 95.36,-82.04 61.17,-5.72 113.27,31.59 119.07,93.64 -62,3.26 -101.05,35.33 -95.58,99.71 -12.29,-1.52 -24.62,-3.41 -36.96,-4.45zm152.19 -36.85c-5.31,-0.03 -9.82,4.31 -10.03,9.67 -0.23,5.73 4.22,10.44 9.9,10.46 5.49,0.02 9.82,-4.13 10.02,-9.6 0.21,-5.74 -4.24,-10.49 -9.89,-10.53zm-52.86 10.52c0.22,-5.72 -4.38,-10.52 -10.11,-10.54 -5.67,-0.03 -10.42,4.84 -10.22,10.47 0.19,5.38 4.72,9.74 10.15,9.75 5.42,0 9.97,-4.23 10.18,-9.68zm-39.85 -95.43c-6.69,0.12 -12.35,5.82 -12.23,12.33 0.12,6.74 5.67,12.02 12.56,11.93 6.9,-0.08 12.13,-5.41 12.07,-12.29 -0.06,-6.76 -5.58,-12.1 -12.4,-11.97zm-77.18 0c-6.82,-0.2 -12.44,5.02 -12.64,11.75 -0.2,6.82 5.01,12.28 11.89,12.46 6.82,0.17 12.54,-5.05 12.79,-11.69 0.25,-6.62 -5.52,-12.33 -12.04,-12.52zm173.23 194.81c-17,4.88 -35.42,4.16 -52.22,-1.32 -35.79,-11.68 -64.51,-46.46 -60.94,-85.32 4.78,-51.91 58.88,-82.16 107.91,-74.86 43.81,6.52 81.32,42.09 77.48,88.43 -1.53,18.51 -10.11,36.34 -25.68,50.15 -11.07,9.82 -2.89,22.33 0.45,35.59 -17.14,-7.64 -27.76,-18.19 -47,-12.67zm-3.23 -11.35c13.31,-3.82 19.33,-4.02 31.91,2.2 -1.87,-7.37 -0.84,-12.9 10.07,-22.58 13.17,-11.69 20.42,-26.72 21.72,-42.31 3.31,-40.12 -29.79,-70.18 -67.43,-75.79 -42.22,-6.28 -90.33,19.12 -94.48,64.25 -3.06,33.33 22.32,63.08 52.86,73.05 14.64,4.77 30.55,5.43 45.35,1.18zm-128.08 -70.74c-1.03,-55.91 42.34,-91.95 95.25,-97.2 -8.23,-48.42 -58.75,-75.26 -104.94,-70.94 -39.67,3.7 -78.02,31.59 -84.79,72.26 -5.28,31.72 10.45,59.55 36.08,77.64 6.99,4.94 8.91,10.48 6.44,18.66 -0.99,3.29 -1.78,6.62 -2.52,10.06 5.85,-3.71 11.46,-7.2 17.69,-10.72 3.97,-2.24 9.05,-2.86 13.54,-2.48 7.77,0.65 15.52,1.72 23.25,2.72z" fill="#d8a353" class="color000000 svgShape"></path></svg>